<svg xmlns="http://www.w3.org/2000/svg" viewBox="0 0 500 500"><path fill="#f5f5f5" d="M107.43 435.34v30.53h93.89v-30.53h-93.89z"/><path fill="#e0e0e0" d="M103.49 426.81v8.53h101.12v-8.53H103.49z"/><path fill="#e0e0e0" d="M154.05 465.87h47.27v-30.53h3.29v-8.53h-52.53v7.74l1.97 31.32zm-33.49-25.61h19.04v4.6h-19.04z"/><path fill="#fff" d="M118.11 450.61h24.45v9.7h-24.45z"/><path fill="#f5f5f5" d="M121.88 396.32v30.53h93.89v-30.53h-93.89z"/><path fill="#e0e0e0" d="M117.94 387.78v8.54h101.11v-8.54H117.94z"/><path fill="#e0e0e0" d="M168.5 426.85h47.27v-30.53h3.28v-8.54h-52.52v7.75l1.97 31.32zm-33.49-25.61h19.04v4.6h-19.04z"/><path fill="#fff" d="M132.56 411.58h24.45v9.7h-24.45z"/><path d="M122.37 59.74a33.55 33.55 0 018.1-3.52l1.66-8 13.53-.22 2 7.94a33.32 33.32 0 018.21 3.23l6.84-4.48 9.74 9.4-4.24 7a33.16 33.16 0 013.52 8.1l8 1.66.23 13.54L172 96.3a33.32 33.32 0 01-3.23 8.21l4.48 6.84-9.4 9.74-7-4.24a33.16 33.16 0 01-8.1 3.52l-1.66 8-13.53.23-2-7.94a33.32 33.32 0 01-8.21-3.23l-6.84 4.48-9.74-9.4 4.24-7a33.1 33.1 0 01-3.52-8.09l-8-1.67-.23-13.53 7.94-1.95a33.32 33.32 0 013.23-8.21L106 65.24l9.4-9.74 7 4.24zm7.22 18a14.52 14.52 0 1020.53-.36 14.52 14.52 0 00-20.53.39zm210.49-34.13a39.53 39.53 0 019.64-4.19l2-9.54 16.11-.28 2.32 9.46a39.5 39.5 0 019.78 3.85l8.15-5.34 11.6 11.2-5.05 8.33a39.36 39.36 0 014.19 9.64l9.54 2 .28 16.12-9.46 2.32a39.89 39.89 0 01-3.85 9.78l5.34 8.15-11.2 11.59-8.33-5.05a39 39 0 01-9.64 4.19l-2 9.54-16.12.29-2.32-9.47a39.12 39.12 0 01-9.78-3.85l-8.15 5.34-11.59-11.19 5.05-8.33a39.15 39.15 0 01-4.19-9.64l-9.54-2-.29-16.12 9.47-2.32a39.42 39.42 0 013.85-9.78l-5.34-8.14 11.19-11.6 8.33 5zm8.6 21.47a17.29 17.29 0 1024.45-.43 17.3 17.3 0 00-24.45.43z" fill="#ebebeb"/><path d="M342.52 174.48a30.76 30.76 0 017.53-3.27l1.55-7.45 12.59-.23 1.81 7.4a31 31 0 017.64 3l6.37-4.17 9.05 8.75-3.94 6.5a30.76 30.76 0 013.27 7.53l7.45 1.55.23 12.59-7.4 1.82a31.12 31.12 0 01-3 7.64l4.17 6.36-8.75 9.06-6.5-3.95a31.17 31.17 0 01-7.53 3.28l-1.55 7.45-12.59.22-1.82-7.39a31 31 0 01-7.64-3l-6.36 4.17-9.1-8.76 3.95-6.5a31.17 31.17 0 01-3.28-7.53l-7.41-1.55-.26-12.59 7.39-1.81a31 31 0 013-7.64l-4.17-6.37 8.74-9.06 6.51 3.95zm6.71 16.77a13.51 13.51 0 1019.1-.33 13.51 13.51 0 00-19.1.33z" fill="#e0e0e0"/><path d="M409.73 135.74a17.38 17.38 0 014.18-1.82l.86-4.14 7-.12 1 4.11a16.71 16.71 0 014.24 1.67l3.54-2.32 5 4.86-2.19 3.61a17.06 17.06 0 011.82 4.19l4.14.86.12 7-4.11 1a17.21 17.21 0 01-1.66 4.24l2.31 3.54-4.86 5-3.61-2.19a17.38 17.38 0 01-4.18 1.82l-.87 4.14-7 .12-1-4.11a17.24 17.24 0 01-4.24-1.67l-3.54 2.32-5-4.86 2.19-3.61a17.45 17.45 0 01-1.82-4.19l-4.14-.86-.12-7 4.11-1a17.24 17.24 0 011.67-4.24l-2.32-3.54 4.86-5 3.62 2.19zm3.72 9.32a7.5 7.5 0 1010.62-.19 7.5 7.5 0 00-10.62.19zM209.89 43.63a17 17 0 014.18-1.82l.86-4.14 7-.12 1 4.1a17.49 17.49 0 014.24 1.67l3.54-2.32 5 4.86-2.19 3.61a17 17 0 011.82 4.18l4.14.86.12 7-4.11 1a17.21 17.21 0 01-1.66 4.24l2.31 3.54-4.86 5-3.61-2.19a17 17 0 01-4.15 1.9l-.87 4.14-7 .13-1-4.11a17.24 17.24 0 01-4.24-1.67l-3.54 2.32-5-4.86 2.13-3.66a17.38 17.38 0 01-1.82-4.18l-4.13-.86-.13-7 4.11-1a17.16 17.16 0 011.7-4.25l-2.32-3.53 4.86-5 3.62 2.19zm3.72 9.37a7.5 7.5 0 1010.62-.19 7.51 7.51 0 00-10.62.19zM146.9 156.58a17 17 0 014.18-1.82l.86-4.14 7-.12 1 4.11a16.78 16.78 0 014.25 1.67l3.53-2.32 5 4.86-2.2 3.61a16.9 16.9 0 011.82 4.19l4.14.86.12 7-4.1 1a17.24 17.24 0 01-1.67 4.24l2.31 3.54-4.85 5-3.62-2.19a17.38 17.38 0 01-4.18 1.82l-.86 4.14-7 .12-1-4.11a17.16 17.16 0 01-4.25-1.67l-3.53 2.32-5-4.86 2.2-3.61a17.06 17.06 0 01-1.82-4.19l-4.14-.86-.13-7 4.11-1a17.09 17.09 0 011.67-4.24l-2.32-3.54 4.86-5 3.62 2.19zm3.73 9.32a7.5 7.5 0 1010.61-.19 7.5 7.5 0 00-10.61.19z" fill="#f5f5f5"/><path d="M462.67 466.85c0 .14-95.22.26-212.66.26s-212.68-.11-212.68-.26 95.2-.26 212.68-.26 212.66.12 212.66.26z" fill="#263238"/><path d="M322.25 466.66l-129.68-.08c-15.6 0-28.24-13.3-28.23-29.69l.06-341.67c0-16.4 12.66-29.69 28.27-29.68l129.68.08c15.6 0 28.24 13.3 28.23 29.69L350.52 437c0 16.38-12.66 29.67-28.27 29.66z" fill="#263238"/><path d="M322.21 77.7h-25.14c-3.37 0-6.11 3-6.11 6.7v4.79c0 3.71-2.73 6.71-6.1 6.71h-49c-3.38 0-6.11-3-6.11-6.71v-4.8c0-3.7-2.73-6.71-6.1-6.71H192.8c-10.93 0-19.8 9.3-19.8 20.79l-.06 333.5c0 11.48 8.85 20.79 19.77 20.79l129.43.08c10.93 0 19.79-9.3 19.79-20.79L342 98.5c0-11.5-8.86-20.79-19.79-20.8z" fill="#fff"/><path d="M281.24 241.47a9 9 0 11-9-9 9 9 0 019 9z" fill="#ff725e"/><ellipse cx="245.46" cy="241.47" rx="9.6" ry="9.62" fill="#ff725e"/><ellipse cx="224.89" cy="224.45" rx="10.19" ry="10.21" fill="#ff725e"/><ellipse cx="220.72" cy="198.27" rx="10.64" ry="10.67" fill="#ff725e"/><ellipse cx="233.75" cy="175.36" rx="11" ry="11.03" fill="#ff725e"/><ellipse cx="258.8" cy="166.3" rx="11.99" ry="12.02" fill="#ff725e"/><path d="M300.82 224.24a8.71 8.71 0 11-8.71-8.73 8.72 8.72 0 018.71 8.73z" fill="#ff725e"/><ellipse cx="296.77" cy="197.98" rx="8.08" ry="8.1" fill="#ff725e"/><ellipse cx="283.33" cy="175.05" rx="7.38" ry="7.4" fill="#ff725e"/><path d="M281.24 241.47a9 9 0 11-9-9 9 9 0 019 9z" fill="#fff" opacity=".5"/><ellipse cx="245.46" cy="241.47" rx="9.6" ry="9.62" fill="#fff" opacity=".4"/><ellipse cx="224.89" cy="224.45" rx="10.19" ry="10.21" fill="#fff" opacity=".3"/><ellipse cx="220.72" cy="198.27" rx="10.64" ry="10.67" fill="#fff" opacity=".2"/><ellipse cx="233.75" cy="175.36" rx="11" ry="11.03" fill="#fff" opacity=".1"/><ellipse cx="258.8" cy="166.3" rx="11.99" ry="12.02" fill="#fff" opacity=".2"/><path d="M300.82 224.24a8.71 8.71 0 11-8.71-8.73 8.72 8.72 0 018.71 8.73z" fill="#fff" opacity=".6"/><ellipse cx="296.77" cy="197.98" rx="8.08" ry="8.1" fill="#fff" opacity=".7"/><ellipse cx="283.33" cy="175.05" rx="7.38" ry="7.4" fill="#fff" opacity=".8"/><path d="M230.06 328a3.18 3.18 0 013.32-3.23 3.08 3.08 0 012.32.93l-.43.42a2.53 2.53 0 00-1.87-.75 2.63 2.63 0 100 5.26 2.5 2.5 0 001.87-.76l.43.42a3.1 3.1 0 01-2.33.94 3.18 3.18 0 01-3.31-3.23zm12.36-3.23v6.35h-.66v-2.93h-4v2.93h-.67v-6.35h.67v2.84h4v-2.84zm6.58 5.77v.58h-4.48v-6.35h4.34v.58h-3.67v2.26h3.28v.58h-3.28v2.35zm.94-2.54a3.18 3.18 0 013.32-3.23 3.08 3.08 0 012.32.93l-.43.42a2.53 2.53 0 00-1.87-.75 2.63 2.63 0 100 5.26 2.5 2.5 0 001.87-.76l.43.42a3.1 3.1 0 01-2.33.94 3.18 3.18 0 01-3.31-3.23zm9.06.14l-1.3 1.32v1.66h-.7v-6.35h.67v3.84l3.72-3.84h.77l-2.74 2.88 2.93 3.47h-.79zm4.44-3.37h.67v6.35h-.67zm8.02 0v6.35h-.55l-4.07-5.12v5.15h-.67v-6.35h.55l4.08 5.16v-5.16zM278 328h.64v2.42a3.47 3.47 0 01-2.32.81 3.23 3.23 0 110-6.46 3.13 3.13 0 012.36.92l-.42.42a2.68 2.68 0 10-1.92 4.52 2.77 2.77 0 001.66-.49zm2.06 2.67a.48.48 0 01.48-.49.49.49 0 01.49.49.5.5 0 01-.49.5.49.49 0 01-.48-.5zm1.94 0a.48.48 0 01.48-.49.49.49 0 01.49.49.5.5 0 01-.49.5.48.48 0 01-.48-.5zm1.9 0a.48.48 0 01.48-.49.48.48 0 01.48.49.49.49 0 01-.48.5.48.48 0 01-.48-.5z" fill="#263238"/><rect x="196.48" y="288.03" width="122.07" height="24.3" rx="11.22" fill="#f5f5f5"/><rect x="196.48" y="288.03" width="67.86" height="24.3" rx="11.22" fill="#ff725e"/><path d="M293.52 302c0 1.26-.87 2.22-2.63 2.22a3.58 3.58 0 01-2.64-1l.28-.42a3.15 3.15 0 002.35.93c1.39 0 2.1-.7 2.1-1.7s-.66-1.73-2.7-1.73h-1.52l.4-3.65h4v.5h-3.52l-.29 2.65h1.07c2.27-.05 3.1.82 3.1 2.2zm5.94 0c0 1.26-.87 2.22-2.63 2.22a3.58 3.58 0 01-2.64-1l.28-.42a3.15 3.15 0 002.35.93c1.39 0 2.09-.7 2.09-1.7s-.65-1.73-2.69-1.73h-1.52l.39-3.65h4v.5h-3.53l-.28 2.65h1.07c2.27-.05 3.11.82 3.11 2.2zm.82-3.41c0-1.22.68-2 1.65-2s1.67.81 1.67 2-.69 2-1.67 2-1.65-.77-1.65-2zm2.91 0c0-1-.51-1.66-1.26-1.66s-1.24.63-1.24 1.66.5 1.67 1.24 1.67 1.26-.63 1.26-1.67zm3.32-2h.49l-5.13 7.53h-.46zm-1.74 5.54c0-1.23.68-2 1.66-2s1.65.8 1.65 2-.67 2-1.65 2-1.66-.76-1.66-1.99zm2.9 0c0-1-.5-1.67-1.24-1.67s-1.26.63-1.26 1.67.51 1.67 1.26 1.67 1.24-.63 1.24-1.66z" fill="#ff725e"/><path fill="#fff" d="M225.99 288.03l-9.12 24.01h6.7l8.51-24.01h-6.09zm16.46 0l-9.13 24.01h6.71l8.5-24.01h-6.08zm16.12 1.81l-8.5 22.35h4a15.72 15.72 0 003.08-1l5.85-16.56a13 13 0 00-4.43-4.79zM210 288l-8.39 22.08a12 12 0 006 1.93l8.51-24z" opacity=".2"/><path d="M307.11 312.33a16.17 16.17 0 002.73-.4 11.38 11.38 0 006.4-4.35 11.13 11.13 0 002.07-5.24 20.68 20.68 0 00.08-3.27 11.06 11.06 0 00-.68-3.43 11.26 11.26 0 00-8.8-7.27 31.43 31.43 0 00-4.49-.15l-96.5.08a12.55 12.55 0 00-3.39.52 12 12 0 00-3.05 1.53 11.18 11.18 0 00-4 5.3c-1.35 4.21-.91 9.29 2 12.55a11.2 11.2 0 005.36 3.44c2 .62 4.23.39 6.37.44h12.54l43.38.05 29.25.09h10.77-2.77l-8 .05-29.25.08-43.38.06H208a12.66 12.66 0 01-3.28-.46 11.7 11.7 0 01-8.38-9.78 22.09 22.09 0 01-.08-3.45 11.19 11.19 0 01.69-3.43 11.73 11.73 0 014.25-5.56 12.52 12.52 0 013.19-1.59 13 13 0 013.55-.55l96.5.07a31 31 0 014.56.34 11.53 11.53 0 019 7.52c1.46 4.76.6 9.41-1.58 12.16a11.39 11.39 0 01-6.54 4.34 7.9 7.9 0 01-1.19.21 4.87 4.87 0 01-.87.07c-.47.04-.71.03-.71.03z" fill="#263238"/><path d="M208.29 421.31v8.16a.9.9 0 01-1.38.76l-6.42-4.08a.91.91 0 010-1.52l6.42-4.08a.9.9 0 011.38.76zm52.71 4a5.63 5.63 0 11-5.63-5.64 5.63 5.63 0 015.63 5.64z" fill="#e0e0e0"/><rect x="301.44" y="420.41" width="10.38" height="10.41" rx="1.87" fill="#e0e0e0"/><path d="M429.55 286.89a72.24 72.24 0 00.68-12.37 25.06 25.06 0 00-3.39-11.8c-.33-.53-2.94-4-3.54-3.84-.43.13 1.43 3.5 1.28 3.93a21.34 21.34 0 00.12 12.63 55.69 55.69 0 004.85 11.45" fill="#263238"/><path d="M411.37 314c-.61-2.86-1.1-5.11-1.12-5.1s-10 1-12.64-8.61c-1.26-4.64-3.08-14.4-4.63-23.25a18.54 18.54 0 0113.62-21.14l.93-.24c10.17-2 17.56 5.51 19.29 15.73l7.18 35.53-15.79 16.75z" fill="#ffbe9d"/><path d="M410.25 308.85a24.07 24.07 0 0011.58-7s-1.16 7.93-11 9.55z" fill="#eb996e"/><path d="M398 284.61a1.42 1.42 0 001.69 1 1.35 1.35 0 001.09-1.61 1.41 1.41 0 00-1.68-1 1.36 1.36 0 00-1.1 1.61zm-1.93-4.16c.22.14 1.06-.9 2.54-1.28s2.76.08 2.88-.15-.2-.38-.77-.6a3.91 3.91 0 00-2.35-.11 3.84 3.84 0 00-2 1.25c-.37.44-.37.83-.3.89zm15.32 1.48a1.42 1.42 0 001.69 1 1.35 1.35 0 001.1-1.6 1.43 1.43 0 00-1.69-1.05 1.37 1.37 0 00-1.1 1.65zm-.66-4.64c.22.14 1.06-.9 2.54-1.28s2.76.08 2.87-.14-.2-.38-.76-.6a3.8 3.8 0 00-2.36-.11 3.74 3.74 0 00-2 1.24c-.32.47-.4.84-.29.89zM408.37 290a10.93 10.93 0 00-2.52.19c-.39.06-.77.08-.9-.16a2.07 2.07 0 010-1.19c.12-1 .25-2.06.38-3.17.49-4.5.74-8.16.56-8.17s-.73 3.61-1.22 8.11c-.11 1.11-.22 2.16-.32 3.17a2.29 2.29 0 00.19 1.54 1 1 0 00.76.39 2.62 2.62 0 00.67-.08 9.93 9.93 0 002.4-.63zm4.63-.06c-.25.05.17 1.66-.91 3.15s-2.84 1.77-2.79 2 .46.22 1.19.05a4.17 4.17 0 002.35-1.57 3.58 3.58 0 00.66-2.62c-.12-.7-.41-1.05-.5-1.01zm-3.75-18.67c.25.36 1.68-.21 3.47-.45s3.32-.13 3.46-.55c.06-.2-.29-.52-.95-.76a5.8 5.8 0 00-2.73-.23 5.91 5.91 0 00-2.55 1c-.57.41-.81.81-.7.99zm-13.84 4.1c.35.27 1.28-.34 2.5-.68s2.32-.36 2.47-.77c.06-.2-.19-.49-.73-.69a3.71 3.71 0 00-4 1.17c-.34.46-.4.84-.24.97z" fill="#263238"/><path d="M427.88 278.68c.15-.11 6.11-3.67 7.61 3s-5.48 6.77-5.54 6.58-2.07-9.58-2.07-9.58z" fill="#ffbe9d"/><path d="M431.41 285.26s.14.05.35.1a1.2 1.2 0 00.87-.18 2.9 2.9 0 00.75-2.86 4 4 0 00-.7-1.59 1.35 1.35 0 00-1.07-.69.61.61 0 00-.61.47c-.05.21 0 .33 0 .35s-.17-.08-.17-.37a.74.74 0 01.17-.49.88.88 0 01.61-.31 1.67 1.67 0 011.44.75 4 4 0 01.81 1.76c.26 1.35-.14 2.76-1 3.25a1.23 1.23 0 01-1.1.06c-.3-.09-.37-.23-.35-.25z" fill="#eb996e"/><path d="M394.9 265c-1.2-.36 1.28-4.55 3.66-6.32 3.61-2.68 9.48-5.12 13.39-4.87 4.71.3 8.87 1.72 12 5.27a26.83 26.83 0 015.82 12.73 8.24 8.24 0 01-.06 4.27c-.61 1.67-2.2 3-1.68 5a2.85 2.85 0 01-.25 2.18c-.94 1.56-2.69.67-3.64-.41-2-2.29-2.86-5.36-3.63-8.32a19.84 19.84 0 01-.95-6.42c.09-1.18.38-2.34.41-3.52a4.1 4.1 0 00-1.19-3.22 5.44 5.44 0 00-.66-.43 7.1 7.1 0 00-7.17.18c-3.46 2.13-9.43 5.49-11.37 4.58a10.44 10.44 0 01-3.63-2.38z" fill="#263238"/><path d="M410.51 250.15c.46-.05 11.72-.34 16.39 6.92s4.5 9.89 4.5 9.89a5.44 5.44 0 011.36.67c.57.41.56 3.08-.9 3.15-11.57-2-24 .68-37.61 4.57l-10.54 2.53c-2.85 1.09-4.08.57-3-.49.81-.8 8.31-6.26 8.31-6.26l1.33-1.62 2.82-7.11s-.75-.7.14-1.66 8.21-9.6 17.2-10.59z" fill="#ff725e"/><path d="M390.32 269.51a2.83 2.83 0 00.41-.1l1.17-.32c1-.3 2.48-.66 4.31-1.08a84.26 84.26 0 0114.53-1.83 130.67 130.67 0 0114.66.32c1.88.13 3.39.27 4.44.36l1.2.1h.42l-.41-.06-1.21-.13c-1-.11-2.55-.27-4.43-.41a118.27 118.27 0 00-14.67-.38 81 81 0 00-14.56 1.88c-3.66.88-5.86 1.65-5.86 1.65z" fill="#263238"/><path d="M421.42 252.36s-11.95 1-16.46 4.82l.52-.45-4.32 3.37a3.11 3.11 0 01-2.49.95 23.31 23.31 0 016.39-5.82c4.39-2.84 11.84-5.47 16.36-2.87z" opacity=".3"/><path d="M421.6 252.38a8.7 8.7 0 00-1.2-.41 14.78 14.78 0 00-3.41-.54 17.8 17.8 0 00-5.1.54 14.85 14.85 0 00-5.66 2.67 25.55 25.55 0 00-2.4 2.21c-.73.75-1.47 1.44-2.11 2.17a14.87 14.87 0 01-1.87 2 5.23 5.23 0 01-2.1 1c-2.81.75-4.69.6-4.61.39a.4.4 0 00.28.17 3.43 3.43 0 00.94.07 15.82 15.82 0 003.42-.51 5.17 5.17 0 002.17-1 15.66 15.66 0 001.9-2c.63-.71 1.38-1.41 2.11-2.16a26.32 26.32 0 012.38-2.18 14.85 14.85 0 015.59-2.66 17.92 17.92 0 015.05-.57 15.44 15.44 0 013.41.48l.9.25a2.3 2.3 0 00.31.08z" fill="#263238"/><path d="M428.73 260.13a27.54 27.54 0 01-5.91.44c-2.3.07-4.55.24-6.85.21-1.74 0-3.77.07-5.13-.84a2.45 2.45 0 001.29 2 11.93 11.93 0 003.88.66 62.39 62.39 0 0013.65-.79 13.88 13.88 0 00-.93-1.72" opacity=".3"/><path d="M426.35 256.28c1.44.24 2.34.42 2.66 1.52.26.91.36 2.09-.51 2.48a2.21 2.21 0 01-.85.15l-14.93.74a2.15 2.15 0 01-1.46-.27 1.49 1.49 0 010-2.08 4 4 0 012.05-1 48.87 48.87 0 0113-1.51" fill="#ff725e"/><path d="M411.53 261.05a1.45 1.45 0 01-.54-.52 1.86 1.86 0 01.13-1.94 4.57 4.57 0 012.7-1.36c1.15-.23 2.43-.47 3.77-.67a38.61 38.61 0 016.93-.5c.89 0 1.6.08 2.1.12l.57.06h.2l-.19-.05-.57-.09c-.5-.06-1.22-.15-2.11-.18a35.78 35.78 0 00-7 .45c-1.34.2-2.62.45-3.77.69a4.62 4.62 0 00-2.77 1.44 1.92 1.92 0 00-.09 2.06 1.17 1.17 0 00.42.4z" fill="#263238"/><path fill="#fff" d="M392.26 264.63l8.88-2.45-.11 2.71-9.77 2.26 1-2.52z"/><path d="M407.78 269.14c0-.05-4.13.39-9.22 1s-9.2 1.12-9.2 1.17 4.14-.39 9.22-1 9.21-1.12 9.2-1.17z" fill="#263238"/><path d="M382.12 323.67l9 21.84 4-16.79a19.92 19.92 0 014.71-8.66 21.23 21.23 0 012.6-2.32l7.07 32.38s-6 18.44-20.25 18.87c-4.14.12-10.45-2.51-12.42-7.12-1-2.28-13.67-32.36-13.67-32.36z" fill="#e0e0e0"/><path fill="#263238" d="M385.97 341.13l.51-3.23-10.61-9-1.88 2.11-6.05 6.93 22.86 18.54 5.51-6.62-10.34-8.73z"/><path d="M471.69 381.59c.3-4.5-5.16-56-5.16-56l-11.71-17.3-22.33-3.93c-.34 2.72-2.09 9.82-11.3 12.44-4.74 1.35-9.89-3.38-9.89-3.38l-8.87 4.31 3.37 24.12 4.35 27.52 61.77 17.56s-.53-.83-.23-5.34z" fill="#e0e0e0"/><path fill="#ff725e" d="M412.92 372.23l-2.77-33.2 32.3-6.54 29.03 42.96.85 14.68-44.64-1.39-14.77-16.51z"/><path d="M404.58 329.09a8.28 8.28 0 01.37 1.56c.21 1 .47 2.48.77 4.29.59 3.64 1.25 8.69 1.91 14.27s1.25 10.62 1.75 14.27c.25 1.75.45 3.2.6 4.31a9.27 9.27 0 01.17 1.59 10.91 10.91 0 01-.37-1.56c-.21-1-.47-2.47-.76-4.29-.6-3.64-1.26-8.68-1.91-14.26s-1.26-10.63-1.76-14.27c-.24-1.75-.44-3.21-.6-4.32a10.66 10.66 0 01-.17-1.59z" fill="#263238"/><path d="M386 341.07s4.33.55 5.85 1.34 5.95 3.72 5.95 3.72l8.92 1.69-2.13 14.74-6-3-13.16 1.31s-2.87-.66-2.87-2.71a5.42 5.42 0 01-2.55-3.86 60.45 60.45 0 01-3.84-5.51c-.32-.89 1.47-3 1.47-3s3.76 3.19 6 3.69 4.35-.4 4.55-1.87c.45-2.95-2.19-6.54-2.19-6.54z" fill="#ffbe9d"/><path d="M409.66 366.5s30 10.74 40 10.1c8.51-.54 12.7-4.53 13.38-10.1s1.61-29.26 1.61-29.26l-16.05 27.87-39.1-1.23z" opacity=".3"/><path d="M458.3 365c2.16-6.16 4.53-18 4.53-18l3.73-19.73a21.4 21.4 0 00-4.86-14.14c-2.45-2.94-5.88-5.45-10.46-5.43-9.69 0-9.35 17.91-9.35 17.91l-2.64 25.59-37.94-6.2-2.41 18.24 44.62 9.63a13.31 13.31 0 0011-2.11 11.6 11.6 0 003.78-5.76z" fill="#e0e0e0"/><path d="M452.31 309.27c0 .08-.77.12-1.95.44a10.44 10.44 0 00-7 6c-.49 1.13-.64 1.89-.72 1.88a4.34 4.34 0 01.37-2 9.7 9.7 0 017.22-6.24 4.4 4.4 0 012.08-.08zm14.25 17.99s0 .17-.06.48-.14.79-.24 1.38l-.95 5.32c-.43 2.31-.95 5.14-1.55 8.41s-1.31 7-2.26 11.09c-.47 2.05-1 4.19-1.58 6.4-.29 1.11-.62 2.23-1 3.37a23.2 23.2 0 01-1.31 3.43 10.78 10.78 0 01-2.21 3.11 12 12 0 01-3.31 2.13 13.85 13.85 0 01-8.08.85l-35.28-7.59-9.91-2.14-.24-.05v-.23c.83-6.3 1.64-12.4 2.41-18.25v-.25h.25l38.04 6.28-.21.16c.85-7.93 1.54-14.32 2-18.75.24-2.18.44-3.88.57-5.06.07-.56.12-1 .16-1.31s.07-.45.07-.45v.45c0 .29-.06.76-.11 1.32-.11 1.18-.27 2.88-.48 5.07-.43 4.44-1.07 10.83-1.85 18.77v.19h-.19l-38-6.12.28-.21c-.76 5.84-1.56 11.94-2.39 18.24l-.13-.3 9.91 2.13 35.26 7.63a13.32 13.32 0 007.8-.8 11 11 0 003.19-2 10.36 10.36 0 002.14-3 23.71 23.71 0 001.29-3.36c.35-1.13.68-2.25 1-3.35.61-2.21 1.13-4.34 1.61-6.38 1-4.08 1.72-7.79 2.33-11.07s1.19-6.08 1.64-8.39.8-4.06 1.05-5.3c.12-.58.22-1 .29-1.37s.05-.48.05-.48z" fill="#263238"/><path d="M443.66 357.68a18 18 0 01-2.53-3.35c-.64-1-1.19-1.89-1.58-2.49a2 2 0 00-.89-.7s.12-.09.36-.05a1.58 1.58 0 01.81.52 28.6 28.6 0 011.73 2.43 17.05 17.05 0 012.1 3.64z" fill="#263238"/><path d="M437.17 334.25s-6.75-17.12.29-25.49a8 8 0 016.72-2.76c2.22.17 5.17.6 7.06 1.69 0 0-6-1.07-8.49 1.58-1.84 2-6.27 8.31-1.6 23.48zm-26.9 5.58l-6.88-22.56a3.89 3.89 0 014.14-1.94l6.64 24.5z" fill="#ff725e"/><path d="M387.84 347.81c-.09.11-3.82-2.7-8.34-6.28a104.13 104.13 0 01-8-6.68c.09-.11 3.82 2.7 8.34 6.28a104.13 104.13 0 018 6.68zM369.9 335.7l-2.05-1.89.98-1.21 2.38 1.6-1.31 1.5z" fill="#455a64"/><path d="M350.62 306.2a3.55 3.55 0 012.44-4.29c3.72-1.1 9.46-2.47 11-1 2.37 2.17 8 7.42 8 7.42l7.82 16.23-12.66 3.73-3.6-12.35s-5.76.31-5.25-2.78c0 0-2.88-1.13-2.47-2.88s2.78-2.16 2.78-2.16l-.51-3.09-7.57 1.33z" fill="#ffbe9d"/><path d="M356.85 310.49h-6.38V303h6.38a3.76 3.76 0 013.76 3.76 3.77 3.77 0 01-3.76 3.73z" fill="#455a64"/><path d="M361.71 306.59l-9.58-2.47s-2.57-.72-1.23 2.06 5.35 2.16 6.89 3.81 2.42 4.43 8.81 5.46" fill="#ffbe9d"/><path d="M366.6 315.45a5.91 5.91 0 01-1.27-.14 13.55 13.55 0 01-3.31-1.06 8.69 8.69 0 01-2-1.35 14.82 14.82 0 01-1.82-2.08c-1-1.73-3.36-1.64-5.44-2.59a4.66 4.66 0 01-1.42-1 4.52 4.52 0 01-.87-1.45 3.15 3.15 0 01-.19-.83 1.12 1.12 0 01.34-.89 1.89 1.89 0 011.65-.16l4.94 1.33 3.32.94a6.62 6.62 0 011.2.41 5.34 5.34 0 01-1.25-.21l-3.37-.79-5-1.22a1.45 1.45 0 00-1.19.08c-.25.19-.18.71 0 1.16a4.14 4.14 0 00.76 1.28 4.54 4.54 0 001.27.87 27.12 27.12 0 003.05 1 5.39 5.39 0 011.47.66 5.07 5.07 0 011.07 1.11 15.31 15.31 0 001.74 2.06 9.27 9.27 0 001.89 1.34 26.26 26.26 0 004.43 1.53z" fill="#eb996e"/><path d="M366 362.11a6.66 6.66 0 01-5.56-3.31 9.9 9.9 0 01-.4-8.77c.08-.18.16-.37.25-.54l-.09-.23a16.73 16.73 0 01-.9-5.25c-.36-5.86-.7-11.31-1-16.75s-.66-10.92-1-16.79h.5c.36 5.87.7 11.33 1 16.79s.66 10.89 1 16.75a16.57 16.57 0 00.81 5 4.89 4.89 0 012.89-2.36 3.14 3.14 0 012.51.52 2.89 2.89 0 011.25 2.09 3.18 3.18 0 01-3.34 3.38 4.53 4.53 0 01-3.34-2.52l-.08.18a9.4 9.4 0 00.36 8.31 5.85 5.85 0 006.7 2.81c2.33-.84 4.15-3.65 4.42-6.85a17 17 0 00-2-8.71c-.64-1.34-1.38-2.65-2.09-3.92s-1.48-2.64-2.13-4a7.56 7.56 0 01-.91-3.23 3 3 0 011.62-2.86 1.82 1.82 0 012.38 1.84h-.49a1.26 1.26 0 00-.52-1.1 1.29 1.29 0 00-1.19-.23 2.57 2.57 0 00-1.3 2.4 7.23 7.23 0 00.86 3c.64 1.37 1.39 2.7 2.12 4s1.45 2.59 2.1 3.95a17.39 17.39 0 012 9c-.24 2.86-1.8 6.22-4.74 7.28a5.15 5.15 0 01-1.69.12zm-5.15-12.61a4.26 4.26 0 003.12 2.58 2.57 2.57 0 002-.81 2.48 2.48 0 00.77-2 2.4 2.4 0 00-1-1.73 2.61 2.61 0 00-2.1-.45 4.68 4.68 0 00-2.76 2.41zm63.39 104.59l23.12-7.91S463.16 467 467.58 466l-13.72-45.4-36.54 10.84z" fill="#455a64"/><path d="M441.15 432.74a1.93 1.93 0 011.73-1.92 1.86 1.86 0 011.92 1.69 2.05 2.05 0 01-1.84 2 1.93 1.93 0 01-1.8-2m13.64-12.23l-3.54 1 13.47 43.56s1.5 1.76 2.85 1.1z" fill="#e0e0e0"/><path d="M447.35 447c.22-.07 0-1.21.37-2.51s1.14-2.17 1-2.35-1.33.54-1.77 2.13.21 2.82.4 2.73zm3.41 4.15c.23 0 .32-1.09 1-2.13s1.63-1.55 1.56-1.77-1.38 0-2.24 1.33-.53 2.63-.32 2.57zm6.51.98c0-.22-1.21-.19-2.25.75s-1.21 2.11-1 2.15.67-.8 1.54-1.55 1.76-1.12 1.71-1.35zm-15.39-3.93c.18-.15-.44-1.08-.73-2.36s-.19-2.37-.42-2.43-.73 1.12-.36 2.62 1.37 2.33 1.51 2.17z" fill="#263238"/><path d="M421.43 392.43c-.89-.24-40.05 41.76-40.94 48.71s.53 13 5.16 16.9 57.31-8.9 57.31-8.9l-5-22.07 19-6.4-17-31.15z" fill="#ff725e"/><path d="M412.16 401.74l-1.25 1.35s22.44 23.55 29.33 23.22l11-3.73L414 399.7z" opacity=".3"/><path d="M438.11 427.65c0 .14-8.13 2.66-18.24 5.63s-18.36 5.27-18.4 5.13 8.13-2.65 18.25-5.63 18.35-5.27 18.39-5.13z" fill="#263238"/><path d="M389.21 430.08l7.61 24.14s-22 15.85-21 20.45l47.35-13.08-10.31-38.11z" fill="#455a64"/><path d="M410.89 448.13a2 2 0 011.95 1.83 1.93 1.93 0 01-1.81 2 2.12 2.12 0 01-2-2c.07-1 1.14-2 2.1-1.81m12.33 14.43l-1-3.7L377 471.75s-1.86 1.5-1.21 2.92z" fill="#e0e0e0"/><path d="M396 454.19c.08.23 1.26 0 2.6.45s2.22 1.23 2.41 1.08-.53-1.39-2.16-1.88-2.97.16-2.85.35zm-4.41 3.43c0 .24 1.11.35 2.17 1.11s1.57 1.74 1.79 1.66 0-1.42-1.31-2.34-2.71-.65-2.65-.43zm-1.18 6.72c.22 0 .22-1.25-.72-2.35s-2.16-1.31-2.21-1.09.81.71 1.57 1.63 1.12 1.85 1.36 1.81zm4.45-15.84c.15.18 1.13-.43 2.46-.7s2.46-.14 2.53-.38-1.14-.78-2.71-.44-2.44 1.37-2.28 1.52z" fill="#263238"/><path d="M423.49 453.54l-2.92-11.45 2.18-1.01-13.25-36.06-2.53 2.2 10.41 33.03 3.73 13.79 2.38-.5z" opacity=".3"/><path d="M392.23 364.28a18.56 18.56 0 00-14.9 3.2 13.65 13.65 0 00-5.56 13.67c2.13 15 21.24 66 21.24 66l26.44-7.95c.15 0 .3-.48.21-.35-.21.35-13.41-42.16-13.08-41.66s26.68 21.81 37.62 25.67a24.28 24.28 0 0027.72-8.28c2.56-3.58 2.74-19.32 0-27.64 0 0-76.3-21.63-77.73-22.16a15.68 15.68 0 00-1.96-.5zm-1.08 15.56a35.85 35.85 0 0115.5 25.16" fill="#ff725e"/><path d="M473 414.06l-.32.51a15.8 15.8 0 01-1.07 1.39 24.06 24.06 0 01-5.21 4.37 26.56 26.56 0 01-10.12 3.85 23.31 23.31 0 01-6.85.09 22.52 22.52 0 01-7.38-2.22c-1.26-.53-2.45-1.25-3.72-1.9s-2.51-1.43-3.77-2.23q-3.79-2.35-7.78-5.12-8-5.52-16.64-12.42l-2.16-1.75-1.08-.9-.29-.27-.14-.13c.09 0-.25-.12.19.06.35-.37.1-.18.18-.22v.07l.19.68c.56 1.8 1.12 3.63 1.7 5.49q1.76 5.55 3.59 11.37c2.48 7.76 5.06 15.86 7.73 24.23l.08.24-.25.08-26.77 8.06-.24.07-.08-.23c-1.71-4.58-3.48-9.45-5.25-14.4-3.84-10.74-7.49-21.26-10.7-31.53-1.61-5.13-3.11-10.2-4.31-15.25-.15-.63-.32-1.25-.44-1.89s-.23-1.27-.35-1.9a17.58 17.58 0 01-.37-3.83 13.46 13.46 0 012.12-7.23 17.43 17.43 0 0112.16-7.35 19.1 19.1 0 017 .29l1.67.43 1.61.48 3.19.95 23.41 7 33.9 10.16 9.21 2.79 2.39.73c.54.17.81.27.81.27s-.28-.06-.83-.22l-2.4-.68-9.24-2.7-34-10-23.44-6.94-3.19-.94-1.64-.47-1.61-.4a18.85 18.85 0 00-6.79-.28 16.94 16.94 0 00-11.82 7.16 12.88 12.88 0 00-2 7 17 17 0 00.37 3.75c.11.62.23 1.25.35 1.88s.29 1.25.43 1.88c1.2 5 2.7 10.08 4.32 15.21 3.21 10.25 6.86 20.77 10.7 31.51 1.77 4.94 3.54 9.82 5.24 14.39l-.31-.16 26.78-8-.17.31c-2.66-8.37-5.23-16.47-7.7-24.23q-1.83-5.83-3.58-11.39c-.57-1.85-1.13-3.69-1.69-5.5l-.19-.69v-.1c.08-.06-.18.08.17-.29.47.19.15.06.26.12l.12.1.24.21 1.07.9 2.15 1.75c5.75 4.59 11.3 8.76 16.59 12.45 2.64 1.86 5.23 3.56 7.75 5.14 1.25.79 2.52 1.5 3.74 2.23s2.45 1.37 3.69 1.91a22.29 22.29 0 007.29 2.22 22.82 22.82 0 006.77-.06 26.51 26.51 0 0010.07-3.75 24.37 24.37 0 005.23-4.28 16 16 0 001.1-1.36c.16-.41.33-.57.33-.57z" fill="#263238"/><path d="M394.5 385.47a9.49 9.49 0 012.2 1.19 32.22 32.22 0 014.74 3.74 28.76 28.76 0 013.92 4.59 8.13 8.13 0 011.22 2.19 19.77 19.77 0 01-1.52-2 36.77 36.77 0 00-4-4.43 45.4 45.4 0 00-4.59-3.81 17.5 17.5 0 01-1.97-1.47zm9.03-2.95a7.87 7.87 0 011 2 34.54 34.54 0 011.55 5.1 33.23 33.23 0 01.75 5.27 8.5 8.5 0 010 2.21c-.16 0-.33-3.35-1.24-7.37s-2.21-7.15-2.06-7.21z" fill="#263238"/><path d="M462 381.48l9.66-2.78 6.31 1.14 3 10.54c3 9.32 2.33 14.66-3.85 18.75-1.81 1.2-3.53 1.86-4.78 1.33C468 408.62 462 381.48 462 381.48z" fill="#455a64"/><path fill="#455a64" d="M471.66 378.7l-61.65-10.14.14.82 61.51 18.4v-9.08zM86.88 426.67L80.82 448s19.31 13.39 18.57 17.43L58.24 455l8.11-33.55z"/><path d="M68.54 442.91a1.75 1.75 0 00-1.64 1.65 1.69 1.69 0 001.6 1.67 1.85 1.85 0 001.73-1.76c-.08-.86-1-1.75-1.85-1.54" fill="#e0e0e0"/><path d="M58.24 455l.95-3.35 39.1 11.25s1.63 1.28 1.1 2.53z" fill="#fff" opacity=".6"/><path d="M81.54 447.9c-.06.2-1.08 0-2.23.45s-1.89 1.12-2.06 1 .43-1.23 1.83-1.7 2.55.08 2.46.25zm3.87 2.91c0 .2-1 .33-1.85 1s-1.32 1.55-1.52 1.49 0-1.25 1.09-2.08 2.32-.61 2.28-.41zm1.16 5.85c-.2 0-.22-1.09.57-2.07s1.84-1.19 1.88-1-.69.64-1.32 1.45-.93 1.65-1.13 1.62zm-4.18-13.76c-.13.16-1-.35-2.14-.56s-2.13-.07-2.19-.27 1-.72 2.33-.45 2.14 1.14 2 1.28z" fill="#263238"/><path d="M72.46 431.68l-1 22.12s21.88 8.42 22.1 12.53L51.19 466l.09-34.54z" fill="#455a64"/><path d="M58.4 451.84a1.76 1.76 0 00-1.21 2 1.68 1.68 0 001.94 1.24A1.85 1.85 0 0060.4 453a1.71 1.71 0 00-2.15-1.06" fill="#e0e0e0"/><path d="M51.19 466l.14-3.48 40.61 1.62s1.88.85 1.66 2.2z" fill="#fff" opacity=".6"/><path d="M72.19 453.59c0 .21-1 .3-2.07 1s-1.57 1.55-1.76 1.46.13-1.29 1.38-2.07 2.5-.58 2.45-.39zm4.44 1.9c0 .2-.86.55-1.57 1.44s-.92 1.82-1.12 1.8-.33-1.19.57-2.27 2.11-1.17 2.12-.97zm2.48 5.42c-.19 0-.47-1 .07-2.16s1.52-1.59 1.6-1.42-.51.79-.94 1.74-.52 1.82-.73 1.84zm-7.25-12.39c-.09.19-1-.1-2.21 0s-2.08.44-2.19.26.78-.93 2.16-1 2.38.58 2.24.74z" fill="#263238"/><path d="M46.22 269.75v17.5l4.64 68.16S48 388.48 46.2 407.15c-1.54 16.21 1 44.44 1 44.44h27l9.66-94.15 6-58.72 10.4-26.72z" fill="#263238"/><path d="M112.53 269.75l2.61 71.05c-.18 13.33-3.85 38.22-8.62 50.65L84.83 439.1l-1.25 4.29-16.13-3.95L79.44 271z" fill="#263238"/><path d="M93.85 288.57a2.3 2.3 0 010 .43v6.04c0 4.17 0 10.2-.13 17.65s-.36 16.32-.89 26.16-1.24 20.69-3.55 31.85C87.25 381.87 85 392.47 83 402.11s-3.78 18.33-5.11 25.66-2.3 13.28-2.89 17.41c-.31 2.06-.47 3.67-.62 4.75-.07.53-.13.94-.17 1.24a2 2 0 01-.08.42 2.31 2.31 0 010-.43c0-.3.06-.71.11-1.24.12-1.09.25-2.7.53-4.77.49-4.14 1.38-10.1 2.66-17.45s3-16 5-25.69 4.24-20.24 6.37-31.41c2.3-11.13 3-22 3.58-31.78s.82-18.69 1-26.14.25-13.47.3-17.64V289a3.42 3.42 0 01.17-.43z" fill="#455a64"/><path d="M127.84 251.59a12.11 12.11 0 01.4 4.09c-.2 2.09-.3 7.25-5.88 9s-10.85-2.43-12.55-4.32-1.51-8.08-1.51-8.08l9.17-4.08z" fill="#ff725e"/><path d="M64.45 172.86l-4.64 7.46-18.81 8 4.71 77.21 3.38 14 62.63-2.08 1.55-10.84v-52.07c-1.42-13.36-7.87-21.66-13.86-24.95l-3.91-2.68L94 182l-5.52-5.17-17.69-4.59z" fill="#ff725e"/><path d="M43.63 259.66a19.19 19.19 0 0018.92 8.42c6.29-1.06 11.6-5.21 17.63-7.28 10.49-3.62 22.46-.74 32.8-4.77.2-1.78.08-4 .2-5.18-5.17-.27-10.68-.56-15.25-3l-4.15-1.53z" opacity=".3"/><path d="M41 188.33s-8.93 7.64-6.34 27.56c2.4 18.5 6.66 44.28 12.34 47.27s17.94 1.49 26.91-3.59 35-18.84 35-18.84l-10.77-19.14-34.69 13.46s-4.49-30.7-7.18-36" fill="#ff725e"/><path d="M56.27 199.07s.1.19.27.58c.08.2.2.44.31.74l.34 1.05c.51 1.58 1.12 4 1.78 7.07 1.34 6.21 3 15.25 4.66 26.51l-.25-.15 34.67-13.5.19-.08.11.18c3.4 6.05 7 12.48 10.77 19.13l.13.23-.25.17-22.24 12-10.91 5.87c-1.79 1-3.58 2-5.43 2.76a45.89 45.89 0 01-5.67 2 37.54 37.54 0 01-11.57 1.34 16.94 16.94 0 01-5.56-1.17l-.65-.29a6 6 0 01-.63-.39 7 7 0 01-1-1 13.84 13.84 0 01-1.47-2.36 53.87 53.87 0 01-3.47-10c-.88-3.33-1.57-6.6-2.19-9.76-1.23-6.34-2.14-12.28-2.9-17.71s-1.43-10.38-1.23-14.75a36.79 36.79 0 012-11 24 24 0 013.29-6.25 13.41 13.41 0 011.19-1.4 3.73 3.73 0 01.46-.42l-.43.45c-.27.31-.67.78-1.14 1.43a25.37 25.37 0 00-3.18 6.26 36.74 36.74 0 00-1.87 10.93c-.17 4.34.52 9.26 1.3 14.69s1.72 11.35 3 17.67c.63 3.16 1.33 6.42 2.21 9.73a53.11 53.11 0 003.46 9.94 13.78 13.78 0 001.42 2.28 6.29 6.29 0 00.93.93 4.26 4.26 0 00.55.34l.62.28a16.26 16.26 0 005.4 1.12A36.64 36.64 0 0064.64 263a44.73 44.73 0 005.6-1.94c1.83-.79 3.57-1.78 5.37-2.74l10.92-5.88 22.25-12-.1.35-10.75-19.08.29.1-34.71 13.41-.21.09v-.24c-1.66-11.25-3.22-20.31-4.49-26.51-.63-3.11-1.21-5.5-1.68-7.09-.12-.4-.22-.75-.32-1.06l-.28-.74c-.19-.39-.26-.6-.26-.6z" fill="#263238"/><path fill="#ff725e" d="M59.26 210.41l22.53-1.48 4.98 9.37-25.25 4.54-2.26-12.43z"/><path d="M59.26 210.41a8.21 8.21 0 01.21.9c.12.63.29 1.46.5 2.5.42 2.19 1 5.25 1.74 9l-.23-.16 22.73-4.15 2.52-.45-.19.37c-1.74-3.3-3.42-6.45-5-9.37l.23.12-16.14.94-4.68.25h-1.72a2.39 2.39 0 01.4 0l1.2-.11 4.62-.37 16.29-1.19h.16l.07.14 5 9.36.17.31-.35.07-2.51.45-22.76 4h-.19v-.19c-.64-3.82-1.17-6.94-1.55-9.17-.17-1-.3-1.85-.4-2.46a7 7 0 01-.12-.79zm4.19 24.64c.14.11-1.88 2.48-3.56 5.86s-2.4 6.42-2.58 6.37a6.93 6.93 0 01.38-2 24.77 24.77 0 011.73-4.6 24.3 24.3 0 012.63-4.15 6.72 6.72 0 011.4-1.48zm22.63-42.93a7.77 7.77 0 01-1.25-.89l-3.27-2.6h.28a30.28 30.28 0 01-4.47 5.61l-.16.16-.18-.15-3.45-2.87c-3.7-3-7.16-5.64-9.68-7.5l-3-2.21a7 7 0 01-1.06-.85 7.05 7.05 0 011.18.69c.74.47 1.8 1.17 3.09 2.07 2.58 1.79 6.08 4.37 9.79 7.4 1.21 1 2.38 2 3.45 2.89H77a32.84 32.84 0 004.5-5.46l.12-.19.16.15 3.22 2.69a10.58 10.58 0 011.08 1.06zm9.26-4.73a3.6 3.6 0 01.18 1.25 18.24 18.24 0 01-.11 3.34l-.07.59-.34-.5a41.09 41.09 0 00-2.68-3.46c-.4-.47-.81-.91-1.21-1.33a8.19 8.19 0 00-.58-.59c-.2-.13-.17-.13-.35.06l-1.66 2.31a13.19 13.19 0 01-1.64 2.07 13.5 13.5 0 011.34-2.28l1.58-2.39a.65.65 0 011-.16c.26.22.42.4.64.62.41.42.83.87 1.24 1.35a31.16 31.16 0 012.66 3.55l-.42.1c.45-2.69.31-4.53.42-4.53zM55.24 196a12.36 12.36 0 01-1.4-1.66 18.09 18.09 0 00-3.69-3.58 12.06 12.06 0 00-4.74-1.76 15.32 15.32 0 01-2.14-.33 6.49 6.49 0 012.19 0 11 11 0 015 1.79 15.27 15.27 0 013.7 3.78 7.43 7.43 0 011.08 1.76zm48.95 13.86a25 25 0 01-1.78-4.8 25.73 25.73 0 01-1.29-5 25.21 25.21 0 011.79 4.81 25.42 25.42 0 011.28 4.99zm8.86 44.14a8.66 8.66 0 01.2 2c.08 1.22.22 2.9.3 4.77a31.45 31.45 0 01-.1 4.81 5.59 5.59 0 01-.43 2 12.43 12.43 0 01.06-2v-4.76c0-1.86-.16-3.55-.14-4.78a6.28 6.28 0 01.11-2.04z" fill="#263238"/><path d="M72.17 217a1.21 1.21 0 10.3-.23" fill="#e0e0e0"/><path d="M57.76 203.66l6.32 18.72 20.83-3.74-20.08 7.87-1.69 6.49-5.38-29.34zm2.62-22.51L79 198l2.88-7.88 3 1-3.23-2.68s-3.54 5.44-4.48 5.54z" opacity=".3"/><path d="M95.87 221.51a5.33 5.33 0 01-.38-1.13c-.23-.84-.53-1.89-.88-3.13-.74-2.64-1.81-6.27-3.12-10.25s-2.63-7.52-3.61-10.09c-.45-1.2-.84-2.21-1.15-3a5.92 5.92 0 01-.38-1.14 5.3 5.3 0 01.56 1.06c.33.69.78 1.71 1.32 3 1.06 2.53 2.43 6.08 3.75 10.06s2.34 7.65 3 10.32c.33 1.33.57 2.42.72 3.17a4.89 4.89 0 01.17 1.13zm-.27-20.79c3.52 3.51 12.44 12.67 12.44 12.67l2.39-1.44-12.57-13.42a1.58 1.58 0 00-2-.24 1.57 1.57 0 00-.26 2.43z" fill="#263238"/><path d="M98.14 221.59l3-8.44a4.74 4.74 0 014.33-3.24 2.26 2.26 0 01.45 0c1.8.2 11 .8 11 .8l3.55 4a1.85 1.85 0 010 2.41l1 7.17-2 1.37.2 5s-1.8 1.2-2.59.8l-.8-.4-1.2-1.2-3.39 4.79-4.69 2.71z" fill="#ffbe9d"/><path d="M120.48 217.49a16.07 16.07 0 00-1.29-1.4 6.11 6.11 0 00-1.71-1 13.15 13.15 0 00-2.48-.34 43 43 0 01-6.55-.87 40.63 40.63 0 016.6.35 11.4 11.4 0 012.59.41 5.49 5.49 0 011.8 1.21 3.15 3.15 0 011.04 1.64zm-.2 6.6a14.21 14.21 0 00-.74-1.84 7.12 7.12 0 00-3.54-3 13.74 13.74 0 00-4.69-.79 10.09 10.09 0 01-2-.06 5.82 5.82 0 012-.3 11.56 11.56 0 014.89.67 6.94 6.94 0 013.68 3.28 3.14 3.14 0 01.4 2.04zm-.9 6.16a3.83 3.83 0 01-.48-2 6.61 6.61 0 00-.45-2.06 2.58 2.58 0 00-1.89-1.43 35.24 35.24 0 00-4.77-.69 5.23 5.23 0 01-2-.46 15.46 15.46 0 012 .1 23.14 23.14 0 014.88.55 3.85 3.85 0 011.35.62 2.74 2.74 0 01.84 1.12 6.2 6.2 0 01.37 2.22c.04 1.27.21 2 .15 2.03z" fill="#eb996e"/><path fill="#455a64" d="M124.37 214.4l-39.54 40.84 1.52 1.54 28.33-3.19 38.12-36.32-.04-1.74-28.39-1.13z"/><path d="M126.93 240.06a7.45 7.45 0 00-5.71-1.91 10.47 10.47 0 00-5.63 2.38 7.6 7.6 0 00-2.8 4c-.66 2.83 1.22 5.79 3.78 7.16l.35-.41 9.74-7.82a2.74 2.74 0 001.13-1.44 2.28 2.28 0 00-.86-1.96z" opacity=".3"/><path d="M122.76 236.24s3.83.08 5.08.7 4.69 4.29 4.69 4.29 0 2.49-1 2.59a9.43 9.43 0 01.2 1.69c.1 1.4.3 2.2-1.6 3.39 0 0 .2 2.3-.5 2.89a13.57 13.57 0 01-1.49 1.1s-2.19 2.69-3.49 2.49-3.17 1.4-3.17 1.4-7-2.92-6.3-3.75l2.44-2.7s-4.83-3.52-4.73-4.62.5-1.19.5-1.19-.2-2.1 1.49-2.3c0 0 1.3-2.59 2.59-2.69s10.07 3.09 10.07 3.09l-3.29-2.79s-3.29-.5-3.19-1.59 1.7-2 1.7-2z" fill="#ffbe9d"/><path d="M122.17 249.38c-.08.12-2-1-4.44-2.16a45.75 45.75 0 01-4.46-2.15 15.74 15.74 0 014.68 1.68 15.25 15.25 0 014.22 2.63zm4.57-3.06a33.92 33.92 0 01-5.72-1.85 34 34 0 01-5.54-2.35 35.75 35.75 0 015.72 1.88 35.69 35.69 0 015.54 2.32z" fill="#eb996e"/><path d="M152.65 217.2a3 3 0 01-.52 0h-1.51l-5.67-.07-19.71-.38.18-.07-9.91 10.32c-8 8.25-15.25 15.7-20.54 21.15l-6.27 6.36-1.7 1.7a5.42 5.42 0 01-.63.57 5.45 5.45 0 01.56-.65l1.65-1.78 6.15-6.48 20.43-21.25 9.93-10.25.07-.08h.11l19.71.57 5.66.21 1.51.07a1.81 1.81 0 01.5.06zm-48.45-81.33a7.5 7.5 0 00-4.86-2.5 4.77 4.77 0 00-3.15.24 3.77 3.77 0 00-1.62 3.64 15.19 15.19 0 001.21 4 7.23 7.23 0 01.57 4.11l3.59 8.55a4.53 4.53 0 002.32-6.52 4.38 4.38 0 001.29-6.64c1.64-.88 1.77-3.39.65-4.88zm-33.12 22.32l-.42-17.28-10.94-.5a3.65 3.65 0 00-1.31 6.45 4.5 4.5 0 00.65 8.44 4.51 4.51 0 002.9 7.3c0 2 1.14 4.24 3.1 4.8s4.26-.93 5.18-2.87.89-4.19.84-6.34z" fill="#263238"/><path d="M59.42 138.5s1.08 14.3 2.48 18.66a44.17 44.17 0 004.48 9.06l33.36-10.36c1.13-7.72 2.3-15.48 1.82-21.56l-10.64-3.79z" fill="#263238"/><path d="M66.48 157.16a72 72 0 01-3.25-11.77 24.62 24.62 0 01.8-12.06c.2-.59 2-4.5 2.6-4.44.44 0-.64 3.67-.41 4.05a21 21 0 012.53 12.18 55.62 55.62 0 01-2.27 12" fill="#263238"/><path d="M89.64 183.93v-9.68s9.86-1.14 10.36-10.93c.25-4.73 0-14.51-.41-23.35a18.26 18.26 0 00-17.54-17.49h-.94c-10.21.19-15.75 9-15.27 19.18v33.16L86 189.34z" fill="#ffbe9d"/><path d="M89.66 174.25a23.66 23.66 0 01-12.6-4.25s2.83 7.25 12.64 6.75z" fill="#eb996e"/><path d="M96.41 148.34A1.4 1.4 0 0195 149.7a1.33 1.33 0 01-1.39-1.31A1.4 1.4 0 0195 147a1.33 1.33 0 011.41 1.34zm.95-4.34c-.18.17-1.21-.65-2.72-.71s-2.64.66-2.79.47.11-.41.61-.74a3.81 3.81 0 012.24-.6 3.67 3.67 0 012.15.79c.45.32.6.66.51.79zm-14.44 4.58a1.4 1.4 0 01-1.4 1.36 1.35 1.35 0 01-1.4-1.32 1.41 1.41 0 011.41-1.36 1.34 1.34 0 011.39 1.32zm-.33-4.58c-.18.18-1.21-.65-2.72-.7s-2.63.65-2.79.46.11-.41.61-.74a3.85 3.85 0 012.24-.6 3.77 3.77 0 012.16.79c.44.36.59.69.5.79zm4.95 11.76a9.71 9.71 0 012.46-.35c.38 0 .75-.08.83-.34a2 2 0 00-.22-1.15q-.48-1.42-1-3c-1.41-4.23-2.42-7.7-2.25-7.76s1.46 3.33 2.87 7.56c.34 1 .67 2 1 3a2.28 2.28 0 01.15 1.52 1 1 0 01-.66.54 2.65 2.65 0 01-.66.06 10.39 10.39 0 01-2.52-.08zm-4.47.87c.24 0 .18 1.63 1.53 2.84s3.1 1.1 3.11 1.33-.4.3-1.14.29a4 4 0 01-2.59-1 3.55 3.55 0 01-1.19-2.38c-.03-.71.21-1.1.28-1.08zm.21-17.82c-.16.4-1.66.15-3.43.29s-3.22.57-3.44.2c-.1-.18.16-.56.75-.93a5.74 5.74 0 012.58-.79 5.61 5.61 0 012.66.42c.6.28.95.62.88.81zm13.65.11c-.28.33-1.3-.06-2.55-.13s-2.31.14-2.54-.23c-.1-.17.08-.51.56-.81a3.47 3.47 0 012.09-.48 3.57 3.57 0 012 .76c.43.37.56.73.44.89z" fill="#263238"/><path d="M66.37 148.91c-.16-.08-6.65-2.26-6.7 4.45s6.69 5.37 6.71 5.18-.01-9.63-.01-9.63z" fill="#ffbe9d"/><path d="M64.35 156s-.12.08-.32.17a1.11 1.11 0 01-.87 0 2.86 2.86 0 01-1.32-2.6 3.89 3.89 0 01.34-1.67 1.36 1.36 0 01.88-.89.6.6 0 01.69.33c.09.18 0 .32.08.33s.15-.11.09-.39a.7.7 0 00-.26-.42.9.9 0 00-.64-.18 1.65 1.65 0 00-1.23 1 4 4 0 00-.42 1.87 3.05 3.05 0 001.69 2.91 1.3 1.3 0 001.07-.17c.2-.15.24-.29.22-.29z" fill="#eb996e"/><path d="M95.25 128.87c1.09-.6-2.17-4.11-4.84-5.32-4-1.82-10.19-2.94-13.91-1.88-4.47 1.28-8.18 3.51-10.42 7.59a26.33 26.33 0 00-2.94 13.47 8 8 0 001 4.09c.94 1.48 2.74 2.41 2.66 4.46a2.84 2.84 0 00.7 2c1.23 1.31 2.73.08 3.42-1.15 1.47-2.63 1.63-5.77 1.75-8.78a19.71 19.71 0 00-.43-6.37c-.33-1.12-.86-2.17-1.13-3.31a4.08 4.08 0 01.47-3.35 4.69 4.69 0 01.55-.55 7 7 0 016.87-1.29c3.78 1.33 10.23 3.31 11.91 2a10.41 10.41 0 003-3z" fill="#263238"/><path d="M76.29 114.74c-.47.05-11.94 2.24-15.08 10.63s-2.38 11-2.38 11a5.32 5.32 0 00-1.22 1c-.49.54.11 3.23 1.6 3 11.29-4.55 24.47-4.6 39.12-3.66l11.23.24c3.13.47 4.27-.33 3-1.16-1-.64-9.8-4.52-9.8-4.52l-1.76-1.36-4.42-6.58s.6-.88-.51-1.66-10.45-7.91-19.78-6.93z" fill="#ff725e"/><path d="M101 129.91a3.64 3.64 0 01-.44 0l-1.25-.07c-1.09-.08-2.66-.12-4.61-.14a87.5 87.5 0 00-15.11 1.3 132.92 132.92 0 00-14.78 3.56c-1.87.54-3.37 1-4.41 1.34l-1.2.36-.43.12.41-.15 1.19-.4c1-.34 2.54-.84 4.4-1.4a124.6 124.6 0 0114.79-3.61 83.54 83.54 0 0115.16-1.31c3.9.1 6.28.4 6.28.4z" fill="#263238"/><path d="M65.73 119.39s12.33-1.57 17.74 1.26l-.63-.34 5.16 2.45a3.23 3.23 0 002.74.42 24.21 24.21 0 00-7.77-4.49c-5.11-1.91-13.24-2.93-17.24.7z" opacity=".3"/><path d="M65.55 119.45a7.87 7.87 0 011.12-.68 15.06 15.06 0 013.34-1.3 18.3 18.3 0 015.28-.57 15.21 15.21 0 016.33 1.46 26.6 26.6 0 012.92 1.7c.9.6 1.8 1.14 2.61 1.74a18.22 18.22 0 002.33 1.59 5.45 5.45 0 002.36.55c3 .15 4.88-.42 4.76-.61a.55.55 0 01-.25.23 4.52 4.52 0 01-.94.28 16.5 16.5 0 01-3.58.24 5.48 5.48 0 01-2.42-.55 17.45 17.45 0 01-2.36-1.59c-.8-.59-1.71-1.13-2.61-1.73a28.17 28.17 0 00-2.9-1.68 15.13 15.13 0 00-6.25-1.46 18.53 18.53 0 00-5.25.53 16.54 16.54 0 00-3.34 1.23c-.38.19-.66.35-.85.46z" fill="#263238"/><path d="M60 128.87a27.18 27.18 0 006.09-.86c2.34-.43 4.66-.75 7-1.29 1.76-.41 3.84-.77 5-2a2.57 2.57 0 01-.86 2.36 12.39 12.39 0 01-3.78 1.52 65.25 65.25 0 01-14 2.22 14.25 14.25 0 01.56-2" opacity=".3"/><path d="M61.6 124.45c-1.41.56-2.28.94-2.36 2.12-.07 1 .09 2.21 1.06 2.41a2.73 2.73 0 00.9 0l15.28-2.55a2.29 2.29 0 001.42-.6 1.53 1.53 0 00-.45-2.1 4.2 4.2 0 00-2.31-.6 50.66 50.66 0 00-13.54 1.35" fill="#ff725e"/><path d="M77.66 126a1.47 1.47 0 00.43-.65 1.91 1.91 0 00-.56-1.94 4.73 4.73 0 00-3-.78c-1.22 0-2.56.06-4 .15a40.68 40.68 0 00-7.13 1c-.89.21-1.61.44-2.1.59l-.57.18-.2.06s.06 0 .19-.09l.56-.22a20.34 20.34 0 012.09-.65 36.78 36.78 0 017.15-1.08c1.41-.09 2.76-.12 4-.13a4.81 4.81 0 013.12.85 2 2 0 01.54 2.06 1.36 1.36 0 01-.33.51z" fill="#263238"/><path fill="#fff" d="M97.98 125.39l-9.54-.52.71 2.72 10.4.13-1.57-2.33z"/><path d="M83.25 133.38s4.27-.51 9.55-1 9.58-.9 9.58-.85-4.27.51-9.56 1-9.57.9-9.57.85z" fill="#263238"/><path fill="#455a64" d="M41.67 268.32h73.47v12.27H41.67z"/><path d="M43.92 274.25h34v34.48a6.92 6.92 0 01-6.92 6.92H50.84a6.92 6.92 0 01-6.92-6.92v-34.48z" fill="#455a64"/><path d="M77.94 285.46a14.65 14.65 0 01-.14-2.13 24.76 24.76 0 00-.75-5.71 3.87 3.87 0 00-.88-1.58 9.52 9.52 0 00-1.6-1.25 10.13 10.13 0 00-4.26-1.35c-3.2-.24-6.79-.13-10.53-.1s-7.35-.3-10.48.39a6.87 6.87 0 00-3.9 2 6.72 6.72 0 00-1.24 3.63c-.23 2.43-.18 4.42-.22 5.79v1.58a3.43 3.43 0 010 .55 2 2 0 01-.06-.55c0-.42 0-.94-.05-1.58 0-1.37-.12-3.35.06-5.82a7.14 7.14 0 011.27-3.87 7.22 7.22 0 014.14-2.17 22.45 22.45 0 015.12-.44h5.46c3.75 0 7.3-.13 10.58.14a10.51 10.51 0 014.43 1.46 9.63 9.63 0 011.66 1.34 4.08 4.08 0 011 1.75 22.47 22.47 0 01.6 5.81v1.58a3.16 3.16 0 01-.21.53zm-.25 3.63c0 .15-7.48.26-16.71.26s-16.71-.11-16.71-.26 7.48-.26 16.71-.26 16.71.17 16.71.26z" fill="#263238"/><path d="M53.66 316c-.15 0-.26-6.05-.26-13.51s.11-13.52.26-13.52.26 6.05.26 13.52S53.8 316 53.66 316zm15.34-.09c-.14 0-.26-6-.26-13.38s.12-13.39.26-13.39.26 6 .26 13.39-.12 13.38-.26 13.38z" fill="#263238"/><path d="M115.14 268.32l4.24 5.93s3.79 35.34 2.1 37-7.37 1.62-7.37 1.62l-1.55-42.31z" fill="#455a64"/><path d="M101.83 280.1a38.85 38.85 0 01-.16-11.92 55.61 55.61 0 01.14 6 55 55 0 01.02 5.92zm13.39-11.58a7.11 7.11 0 01.45 2c.2 1.24.4 3 .51 4.89a10.32 10.32 0 01-.11 2.74 3.47 3.47 0 01-1.15 2 2.36 2.36 0 01-1.43.58c-.38 0-.56-.09-.56-.11a2.88 2.88 0 001.74-.75 3.17 3.17 0 00.93-1.8 11.32 11.32 0 00.06-2.63c-.2-3.83-.59-6.9-.44-6.92z" fill="#263238"/><path d="M452.51 274.1l4.68-4.42a20.53 20.53 0 10-7-2.4z" fill="#fff"/><path d="M452.51 274.1l-.15-.46c-.1-.3-.24-.74-.42-1.31-.38-1.16-.94-2.86-1.66-5.08l-.08.08a.06.06 0 00.08 0 .06.06 0 000-.07 20.47 20.47 0 01-7.29-7 20.07 20.07 0 01-1.46-2.81 23.34 23.34 0 01-1-3.22 20.38 20.38 0 0139.25-10.92 20 20 0 01.77 8.8 20.43 20.43 0 01-7.55 13.34l-.7.53a4.88 4.88 0 01-.7.49l-1.43.89a29.44 29.44 0 01-2.91 1.31 20.43 20.43 0 01-10 1h-.05c-1.5 1.44-2.66 2.54-3.44 3.3l-.9.86-.3.3.3-.27.89-.83 3.53-3.27h-.05a20.35 20.35 0 0010.09-.95 24.92 24.92 0 002.93-1.31l1.45-.88a5.07 5.07 0 00.72-.49l.7-.54a20.67 20.67 0 006.92-22.4 21.06 21.06 0 00-4.88-8.16 20.63 20.63 0 00-8.45-5.26 8.38 8.38 0 00-1.21-.35l-1.21-.29-1.22-.18a7.34 7.34 0 00-1.23-.13l-1.22-.06a10.1 10.1 0 00-1.23 0c-.4 0-.81 0-1.21.07l-1.19.18a20.32 20.32 0 00-8.62 3.55 20.56 20.56 0 00-8.06 21.67 23.32 23.32 0 001.06 3.25 21 21 0 001.48 2.83 20.56 20.56 0 007.4 7v-.12a.07.07 0 00-.08.05l1.75 5.1.44 1.29c.08.37.14.47.14.47z" fill="#263238"/><path fill="#263238" d="M449.6 249.05l3.09-2.77 5.38 5.32 9.76-9.1 2.56 3.07-13.04 11.66-7.75-8.18z"/></svg>